#define has_win_width 8
#define has_win_height 16
static unsigned char has_win_bits[] = {
   0x00, 0x00, 0x00, 0x3c, 0x1c, 0x0c, 0x04, 0x00, 0x00, 0x00, 0x00, 0x00,
   0x00, 0x00, 0x00, 0x00 };
