#define has_app_width 8
#define has_app_height 16
static unsigned char has_app_bits[] = {
   0x00, 0x00, 0x00, 0x3c, 0x24, 0x24, 0x3c, 0x00, 0x00, 0x00, 0x00, 0x00,
   0x00, 0x00, 0x00, 0x00 };
