#define tab_width 12
#define tab_height 12
static unsigned char tab_bits[] = {
   0x00, 0x00, 0x00, 0x00, 0x9e, 0x07, 0x00, 0x00, 0xfe, 0x07, 0xfe, 0x07,
   0xfe, 0x07, 0xfe, 0x07, 0xfe, 0x07, 0xfe, 0x07, 0x00, 0x00, 0x00, 0x00 };
